<svg id="Calque_1" data-name="Calque 1" xmlns="http://www.w3.org/2000/svg" viewBox="0 0 179.38 85.69"><defs><style>.cls-1{fill:#0065fc;}</style></defs><path class="cls-1" d="M61.3,26c-1.3.5-2.3,1.4-2.3,1.9s-2.4,2.2-5.2,3.8c-9.2,4.9-10.9,12.5-3.9,16.6,2.8,1.6,2.8,1.6,2.3-.8s3-8.5,4.9-8.5c.5,0,.9,12.4.9,30.6v30.7l-4.1-.7c-3.8-.6-4-.5-3.7,1.6.2,1.5,1.5,2.8,3.6,3.7,2.3,1.1,3.2,2.1,3.2,3.9,0,2.1.3,2.3,2.8,1.7a27.58,27.58,0,0,0,5.6-2.1A17.68,17.68,0,0,1,72,107c8.6,0,18-5.5,21.1-12.4,4.1-9,1.4-19.2-5.8-22.6-1.8-.8-3.3-1.7-3.3-2s2.1-1.6,4.7-3c6.1-3.2,11-9.6,11.9-15.6,2-13.2-7.4-22-24.8-23.1-5.4-.4-8.6-1.1-9.1-1.9C65.8,24.8,64.5,24.7,61.3,26ZM82.8,38.9c6,3.1,7.6,6,7.3,13.5-.2,4.3-9.2,12.8-16,15.1C65.9,70.2,66,70.3,66,52.7c0-8.5.3-15.7.8-16.1C68.1,35.2,78.5,36.7,82.8,38.9ZM74.9,74.1c12.7,2.7,14.9,16.1,4,24.1-2.7,2-9.7,4-11.1,3.2-.4-.3-.8-6.8-.8-14.5C67,71.3,66.4,72.3,74.9,74.1Z" transform="translate(-45.59 -25.1)"/><path class="cls-1" d="M176.8,31.6,174,33.1V58.4c0,13.9.3,28.8.7,33l.6,7.7,3.6-.3,3.6-.3-.3-7.6-.4-7.5,3.5-2.7c2-1.5,4-2.7,4.6-2.7,2,0,4.1,4.6,5,11.2,1.8,12.9,6.7,17.2,15.7,13.8l2.6-1L210,99.7c-5-3.4-7.1-6.8-8.6-14.3-1-5-2.1-7.5-4-9.2L194.9,74l3.5-4.3c3.9-4.8,7-11.3,6.1-12.7-1.7-2.8-8.1.3-9.5,4.5-1.3,4-5.4,9.4-9.9,13.1l-3.4,2.8.7-17.4c.3-9.6.9-20.3,1.2-23.8.6-6,.6-6.2-1.7-6.2A15.73,15.73,0,0,0,176.8,31.6Z" transform="translate(-45.59 -25.1)"/><path class="cls-1" d="M214,43c-3.8,3.8-1.9,10,3.1,10,6,0,10.6-8.5,6-11C220,40.4,216.2,40.8,214,43Zm7.3,2.7c.8.7-3.1,5.3-4.5,5.3s-.9-2.2.9-4.2S220.3,44.6,221.3,45.7Z" transform="translate(-45.59 -25.1)"/><path class="cls-1" d="M111.6,60.1c-5,4-7.9,10.4-8.4,19-.4,6.6-.1,8.5,1.8,12.4,4,8.2,10.9,10.5,18.4,6.2,5.8-3.3,8.6-9.2,8.6-18.2,0-13.8-5.9-23.4-12.3-20-2.2,1.1-2.6,1.1-3.1-.1C115.9,57.5,114.7,57.6,111.6,60.1ZM124,67.5a29.65,29.65,0,0,1,.6,17.7c-2.8,9.8-8.6,12.4-12.3,5.5-2.3-4.4-2.2-15.9.2-21.2,1.6-3.5,1.9-3.7,2.2-1.7l.4,2.3,2-2.6C119.7,64.3,122.8,64.3,124,67.5Z" transform="translate(-45.59 -25.1)"/><path class="cls-1" d="M145.3,61.2c-5,5.2-7.3,11.2-7.3,19.6,0,8.6,2.4,14.2,7.3,17.2,4,2.5,7,2.5,12.5,0,3.5-1.6,4.7-2.9,6.7-7.2a29.44,29.44,0,0,0-.2-24.8c-3.6-6.9-5.9-8.5-9.5-6.6-2.3,1.2-2.7,1.2-3.2,0C150.7,57.1,148.6,57.8,145.3,61.2Zm13.5,6.5c3.2,8.4,1.9,19.4-2.9,24.7-2.7,3-2.9,3-5.6,1.6-3.8-2.1-5.6-7.8-4.9-15.5.6-6.6,2.3-12.5,3.7-12.5.5,0,.9,1,.9,2.1,0,2.1.1,2,2.1-.5C154.8,64.2,157.5,64.3,158.8,67.7Z" transform="translate(-45.59 -25.1)"/><path class="cls-1" d="M215,60.1l-2.5.9.3,18.7c.2,10.4.7,19.2,1.1,19.6s1.9.4,3.2-.2c2.5-.9,2.5-1.3,3.8-17.3.6-8.9,1.4-17.8,1.8-19.6.5-3,.4-3.2-2.3-3.1A19.13,19.13,0,0,0,215,60.1Z" transform="translate(-45.59 -25.1)"/></svg>